<?xml version="1.0" standalone="no"?>
<!DOCTYPE svg PUBLIC "-//W3C//DTD SVG 20010904//EN"
 "http://www.w3.org/TR/2001/REC-SVG-20010904/DTD/svg10.dtd">
<svg version="1.0" xmlns="http://www.w3.org/2000/svg"
 width="700.000000pt" height="700.000000pt" viewBox="0 0 700.000000 700.000000"
 preserveAspectRatio="xMidYMid meet">
<metadata>
Created by potrace 1.14, written by Peter Selinger 2001-2017
</metadata>
<g transform="translate(0.000000,700.000000) scale(0.100000,-0.100000)"
fill="#000000" stroke="none">
<path d="M1469 6996 c-2 -2 -24 -6 -49 -9 -141 -18 -176 -26 -325 -74 -162
-52 -387 -177 -512 -284 -316 -271 -517 -637 -571 -1039 -10 -74 -9 -4109 1
-4185 13 -99 49 -244 87 -350 21 -61 109 -246 120 -255 4 -3 9 -12 12 -20 9
-25 117 -171 177 -239 178 -204 453 -382 711 -461 173 -53 164 -51 325 -70 82
-10 4113 -7 4165 3 228 44 330 77 495 158 66 33 162 90 214 127 107 76 275
236 345 329 175 233 288 506 324 783 10 77 9 4111 -1 4185 -16 118 -62 300
-88 347 -5 10 -9 23 -9 29 0 28 -126 262 -188 348 -65 92 -214 253 -297 320
-72 59 -228 157 -317 200 -150 71 -281 112 -448 141 -98 17 -232 18 -2136 19
-1117 0 -2033 -1 -2035 -3z m805 -1476 c140 -287 324 -666 443 -910 58 -118
140 -287 183 -375 211 -436 290 -595 292 -595 2 0 4 467 4 1038 l0 1037 574
-1 c316 0 613 -4 660 -8 656 -57 971 -412 973 -1096 0 -74 -10 -232 -18 -270
-22 -113 -30 -144 -52 -209 -87 -255 -244 -390 -528 -456 -29 -7 -28 -8 23
-21 352 -92 567 -324 657 -709 32 -136 48 -442 31 -584 -3 -25 -8 -71 -11
-101 -4 -30 -11 -75 -16 -100 -6 -25 -13 -56 -15 -70 -12 -58 -59 -191 -94
-262 -95 -191 -224 -321 -414 -418 -110 -56 -199 -84 -331 -106 -86 -14 -194
-17 -768 -18 -367 -1 -667 1 -668 4 -1 3 -2 356 -3 785 l-1 780 -32 55 c-17
30 -49 87 -70 126 -165 304 -177 324 -189 301 -7 -12 -42 -96 -78 -187 -37
-91 -71 -174 -76 -185 -13 -30 -55 -131 -88 -215 -69 -172 -573 -1407 -586
-1435 l-13 -30 -296 0 c-164 0 -297 3 -297 7 0 8 53 143 75 193 8 17 38 91 68
165 60 147 802 1954 842 2051 l25 60 -31 70 c-17 39 -45 103 -63 143 -18 39
-50 109 -71 156 -21 47 -49 110 -62 140 -14 30 -63 141 -110 245 -47 105 -93
208 -103 230 -10 22 -49 110 -88 195 -38 85 -116 259 -172 385 -56 127 -118
263 -136 303 -19 41 -34 77 -34 80 0 4 128 7 284 7 l285 0 95 -195z"/>
<path d="M3826 5251 c-2 -3 -4 -315 -4 -693 0 -629 2 -688 17 -689 9 -1 116
-1 238 -1 271 0 341 8 454 47 240 83 332 274 333 685 0 105 -7 204 -18 255
-25 118 -59 186 -122 248 -91 90 -204 124 -474 143 -111 8 -420 12 -424 5z"/>
<path d="M3826 3391 c-2 -3 -4 -379 -4 -834 l1 -828 281 1 c181 1 304 6 342
14 32 7 61 13 64 13 38 5 107 31 156 58 66 37 117 88 157 156 29 50 74 180 81
237 3 20 9 57 13 82 10 57 11 441 1 495 -4 22 -11 56 -14 75 -11 63 -62 201
-96 257 -86 143 -247 239 -448 269 -56 8 -530 12 -534 5z"/>
</g>
</svg>
